<svg xmlns="http://www.w3.org/2000/svg" enable-background="new 0 0 24 24" viewBox="0 0 24 24" id="location-tracker"><g><path d="M3 9.042c.5527 0 1-.4478 1-1V6c0-1.103.8975-2 2-2h2.083c.5527 0 1-.4478 1-1s-.4473-1-1-1H6C3.7939 2 2 3.7944 2 6v2.042C2 8.5942 2.4473 9.042 3 9.042zM22 6c0-2.2056-1.7939-4-4-4h-1.958c-.5527 0-1 .4478-1 1s.4473 1 1 1H18c1.1025 0 2 .897 2 2v2.042c0 .5522.4473 1 1 1s1-.4478 1-1V6zM16 22h2c2.2061 0 4-1.7944 4-4v-1.958c0-.5522-.4473-1-1-1s-1 .4478-1 1V18c0 1.103-.8975 2-2 2h-2c-.5527 0-1 .4478-1 1S15.4473 22 16 22zM6 22h2.083c.5527 0 1-.4478 1-1s-.4473-1-1-1H6c-1.1025 0-2-.897-2-2v-1.958c0-.5522-.4473-1-1-1s-1 .4478-1 1V18C2 20.2056 3.7939 22 6 22zM12 18c.5527 0 1-.4478 1-1v-3.142c1.7205-.4472 3-1.9997 3-3.858 0-2.2056-1.7939-4-4-4s-4 1.7944-4 4c0 1.8583 1.2795 3.4108 3 3.858V17C11 17.5522 11.4473 18 12 18zM10 10c0-1.103.8975-2 2-2s2 .897 2 2-.8975 2-2 2S10 11.103 10 10z"></path></g></svg>